# xmcd CD database file
#
# Track frame offsets:
#	180
#	20620
#	40945
#	62102
#	80230
#	95306
#	115768
#	139351
#	155388
#	172139
#	189654
#
# Disc length: 2802 seconds
#
# Revision: 0
# Processed by: cddbd v1.5.1PL2 Copyright (c) Steve Scherf et al.
# Submitted via: CDex 1.51
#
DISCID=990af00b
DTITLE=Judy Ann - Judy Ann
DYEAR=1900
DGENRE=Québécois
TTITLE0=Vas-y
TTITLE1=une vie à vivre
TTITLE2=je serai là
TTITLE3=toi et moi
TTITLE4=à toi
TTITLE5=vivre dans la nuit
TTITLE6=Holy water
TTITLE7=audacieux
TTITLE8=tu vas t'en aller
TTITLE9=t'as quelque chose à dire
TTITLE10=vas-y ( version accoustique)
EXTD=
EXTT0=
EXTT1=
EXTT2=
EXTT3=
EXTT4=
EXTT5=
EXTT6=
EXTT7=
EXTT8=
EXTT9=
EXTT10=
PLAYORDER=
